<?xml version="1.0" encoding="utf-8"?>
<!-- Generator: Adobe Illustrator 27.9.0, SVG Export Plug-In . SVG Version: 6.00 Build 0)  -->
<svg version="1.1" id="Layer_1" xmlns="http://www.w3.org/2000/svg" xmlns:xlink="http://www.w3.org/1999/xlink" x="0px" y="0px"
	 viewBox="0 0 841.89 595.28" style="enable-background:new 0 0 841.89 595.28;" xml:space="preserve">
<style type="text/css">
	.st0{fill:#1A90D3;}
	.st1{fill:url(#SVGID_1_);}
	.st2{fill:url(#SVGID_00000178183903074335915180000008297466091095620244_);}
	.st3{fill:url(#SVGID_00000021806164861151961830000009586594344452100227_);}
	.st4{fill:url(#SVGID_00000139252903887633728390000002827355726154758042_);}
	.st5{fill:url(#SVGID_00000053540627356911634520000010095468015588053695_);}
	.st6{fill:url(#SVGID_00000092455545836388286740000017344773889232539573_);}
	.st7{fill:url(#SVGID_00000046302265120618993530000011913891498923926147_);}
	.st8{fill:url(#SVGID_00000010997437658474138560000014214654390233077412_);}
	.st9{fill:url(#SVGID_00000140711155128827843240000004910456313892763057_);}
	.st10{fill:url(#SVGID_00000085944445667578001660000014373162810967761836_);}
	.st11{fill:url(#SVGID_00000067915532134606884130000006180223169596436883_);}
	.st12{fill:url(#SVGID_00000180336097915278776730000012425037635715698589_);}
	.st13{fill:url(#SVGID_00000074431597680967623260000004092332327639279755_);}
	.st14{fill:url(#SVGID_00000074431603666662218380000009789987739272285582_);}
	.st15{fill:url(#SVGID_00000139990938070209900650000013846649676422598295_);}
	.st16{fill:url(#SVGID_00000095296959566663040780000017243761924727118213_);}
	.st17{fill:url(#SVGID_00000063611540781189636590000010236990377417700019_);}
	.st18{fill:url(#SVGID_00000165924081795295039390000001875757543308662940_);}
	.st19{fill:url(#SVGID_00000140016597086961448220000012951290129601336745_);}
	.st20{fill:url(#SVGID_00000065037772228591936730000002056898223194895770_);}
	.st21{fill:url(#SVGID_00000119110303699914695180000003999400095480141471_);}
	.st22{fill:url(#SVGID_00000080164389451724021250000005726058177692236943_);}
	.st23{fill:url(#SVGID_00000168807875286818250340000012521893265768062640_);}
</style>
<g>
	<g>
		<path class="st0" d="M389.16,280.1c0-2.53,0.28-4.73,0.83-6.6c0.55-1.87,1.49-3.41,2.8-4.63c1.31-1.22,3.04-2.13,5.18-2.73
			c2.14-0.6,4.78-0.9,7.91-0.9h13.83c2.07,0,3.96,0.33,5.67,1c1.71,0.67,3.16,1.61,4.36,2.83c1.2,1.22,2.13,2.7,2.8,4.42
			c0.67,1.73,1,3.65,1,5.77c0,3.83-1.06,6.98-3.18,9.47c1.47,1.24,2.6,2.79,3.39,4.63c0.78,1.84,1.17,3.94,1.17,6.29
			c0,2.12-0.33,4.03-1,5.74c-0.67,1.71-1.6,3.17-2.8,4.39c-1.2,1.22-2.65,2.17-4.35,2.83c-1.71,0.67-3.59,1-5.67,1h-15.21
			c-3.13,0-5.77-0.3-7.91-0.9c-2.14-0.6-3.87-1.51-5.18-2.73c-1.31-1.22-2.25-2.76-2.8-4.63c-0.55-1.87-0.83-4.07-0.83-6.6v-1.04
			h8.3v0.07c0,1.43,0.07,2.62,0.21,3.56c0.14,0.95,0.47,1.72,1,2.32c0.53,0.6,1.34,1.03,2.42,1.28c1.08,0.25,2.55,0.38,4.39,0.38
			h14.79c1.94,0,3.48-0.56,4.63-1.69c1.15-1.13,1.73-2.57,1.73-4.32s-0.58-3.2-1.73-4.36c-1.15-1.15-2.7-1.73-4.63-1.73h-10.92v-7.6
			h9.54c1.94,0,3.48-0.56,4.63-1.69c1.15-1.13,1.73-2.57,1.73-4.32c0-1.75-0.58-3.2-1.73-4.35c-1.15-1.15-2.7-1.73-4.63-1.73h-13.41
			c-1.84,0-3.31,0.13-4.39,0.38c-1.08,0.25-1.89,0.67-2.42,1.24c-0.53,0.58-0.86,1.35-1,2.32c-0.14,0.97-0.21,2.17-0.21,3.59v0.07
			h-8.3V280.1z"/>
		<path class="st0" d="M485.8,296.76c0,2.86-0.42,5.32-1.24,7.4c-0.83,2.07-2.02,3.8-3.56,5.18c-1.55,1.38-3.42,2.42-5.63,3.11
			s-4.72,1.08-7.53,1.17h-9.95c-3.36,0-6.34-0.6-8.92-1.8c-2.58-1.2-4.73-2.86-6.46-4.98c-1.73-2.12-3.04-4.65-3.94-7.6
			c-0.9-2.95-1.35-6.15-1.35-9.61v-0.42c0-3.59,0.48-6.87,1.45-9.82c0.97-2.95,2.39-5.47,4.25-7.57c1.87-2.1,4.17-3.72,6.91-4.87
			c2.74-1.15,5.91-1.73,9.5-1.73h22.12v8.3H458.7c-3.92,0-6.9,1-8.95,3.01c-2.05,2.01-3.35,4.76-3.9,8.26
			c1.34-1.47,2.89-2.57,4.67-3.28c1.77-0.71,3.67-1.07,5.7-1.07h15.35c1.89,0,3.7,0.32,5.43,0.97c1.73,0.65,3.25,1.64,4.56,2.97
			c1.31,1.34,2.35,3.03,3.11,5.08C485.42,291.51,485.8,293.95,485.8,296.76z M449.09,296.96c0,1.57,0.24,2.89,0.73,3.98
			c0.48,1.08,1.15,1.95,2.01,2.59c0.85,0.65,1.87,1.11,3.04,1.38c1.18,0.28,2.45,0.42,3.84,0.42h6.43c1.57,0,3.05-0.08,4.46-0.24
			s2.63-0.53,3.66-1.11c1.04-0.57,1.86-1.42,2.45-2.52s0.9-2.6,0.9-4.49c0-1.57-0.22-2.87-0.66-3.91c-0.44-1.04-1.04-1.88-1.8-2.52
			c-0.76-0.64-1.66-1.11-2.7-1.38c-1.04-0.28-2.13-0.41-3.28-0.41h-10.65c-1.15,0-2.25,0.14-3.28,0.41
			c-1.04,0.28-1.94,0.74-2.7,1.38c-0.76,0.65-1.36,1.49-1.8,2.52C449.31,294.09,449.09,295.4,449.09,296.96z"/>
		<path class="st0" d="M488.22,288.94c0-3.55,0.56-6.78,1.69-9.71c1.13-2.93,2.73-5.43,4.8-7.5c2.07-2.07,4.57-3.67,7.5-4.8
			c2.93-1.13,6.16-1.69,9.71-1.69h2.35c3.55,0,6.79,0.58,9.71,1.73c2.93,1.15,5.43,2.79,7.5,4.91c2.07,2.12,3.67,4.7,4.8,7.74
			c1.13,3.04,1.69,6.48,1.69,10.3c0,3.55-0.57,6.79-1.69,9.71c-1.13,2.93-2.73,5.43-4.8,7.5c-2.07,2.07-4.58,3.68-7.5,4.8
			c-2.93,1.13-6.16,1.69-9.71,1.69h-2.35c-3.55,0-6.79-0.56-9.71-1.69c-2.93-1.13-5.43-2.73-7.5-4.8c-2.07-2.07-3.68-4.57-4.8-7.5
			c-1.13-2.93-1.69-6.16-1.69-9.71V288.94z M513.93,305.33c2.35,0,4.49-0.38,6.43-1.14c1.94-0.76,3.59-1.83,4.98-3.21
			c1.38-1.38,2.45-3.06,3.21-5.05c0.76-1.98,1.14-4.19,1.14-6.64c0-2.35-0.38-4.49-1.14-6.43c-0.76-1.94-1.83-3.59-3.21-4.98
			c-1.38-1.38-3.04-2.45-4.98-3.21c-1.94-0.76-4.08-1.14-6.43-1.14h-1.66c-2.35,0-4.49,0.38-6.43,1.14
			c-1.94,0.76-3.59,1.83-4.98,3.21c-1.38,1.38-2.45,3.06-3.21,5.05c-0.76,1.98-1.14,4.19-1.14,6.64c0,2.35,0.38,4.49,1.14,6.43
			c0.76,1.94,1.83,3.59,3.21,4.98c1.38,1.38,3.04,2.45,4.98,3.21c1.94,0.76,4.08,1.14,6.43,1.14H513.93z"/>
	</g>
	<g>
		<g>
			<linearGradient id="SVGID_1_" gradientUnits="userSpaceOnUse" x1="285.112" y1="282.2061" x2="496.942" y2="381.7916">
				<stop  offset="3.806249e-03" style="stop-color:#000428"/>
				<stop  offset="0.9996" style="stop-color:#004E80"/>
			</linearGradient>
			<path class="st1" d="M310.13,278.24v4.1h-17.87c-0.41,0-0.77,0.08-1.09,0.24c-0.32,0.16-0.59,0.36-0.8,0.59
				c-0.21,0.23-0.37,0.5-0.48,0.8c-0.11,0.3-0.16,0.58-0.16,0.83v9.25c0,0.26,0.05,0.53,0.16,0.83c0.11,0.3,0.27,0.57,0.48,0.8
				c0.21,0.23,0.48,0.43,0.8,0.59c0.32,0.16,0.68,0.24,1.09,0.24h17.87v4.1h-17.87c-1.05,0-1.97-0.21-2.77-0.62
				c-0.8-0.42-1.47-0.94-2-1.59c-0.53-0.64-0.94-1.35-1.22-2.13c-0.28-0.78-0.42-1.52-0.42-2.23v-9.25c0-0.7,0.14-1.45,0.42-2.23
				c0.28-0.78,0.68-1.49,1.22-2.13c0.53-0.64,1.2-1.17,2-1.58c0.8-0.42,1.72-0.62,2.77-0.62H310.13z"/>
			
				<linearGradient id="SVGID_00000054962528112442880890000007666087569298872218_" gradientUnits="userSpaceOnUse" x1="288.4203" y1="275.169" x2="500.2502" y2="374.7544">
				<stop  offset="3.806249e-03" style="stop-color:#000428"/>
				<stop  offset="0.9996" style="stop-color:#004E80"/>
			</linearGradient>
			<path style="fill:url(#SVGID_00000054962528112442880890000007666087569298872218_);" d="M314.36,278.24h3.87v15.82
				c0,0.26,0.05,0.52,0.14,0.78c0.1,0.27,0.23,0.52,0.42,0.75c0.18,0.24,0.41,0.44,0.69,0.61c0.28,0.17,0.6,0.28,0.96,0.32v4.1
				c-1-0.04-1.88-0.28-2.64-0.7c-0.76-0.43-1.39-0.96-1.9-1.6c-0.51-0.64-0.9-1.33-1.15-2.08c-0.26-0.75-0.38-1.47-0.38-2.18V278.24
				z"/>
			
				<linearGradient id="SVGID_00000054983205921002678490000000025780894388058043_" gradientUnits="userSpaceOnUse" x1="289.6973" y1="272.4528" x2="501.5272" y2="372.0382">
				<stop  offset="3.806249e-03" style="stop-color:#000428"/>
				<stop  offset="0.9996" style="stop-color:#004E80"/>
			</linearGradient>
			<path style="fill:url(#SVGID_00000054983205921002678490000000025780894388058043_);" d="M324.28,282.81h3.87v17.8h-3.87V282.81z
				 M328.17,279.95c0,1.15-0.93,2.07-2.07,2.07s-2.07-0.93-2.07-2.07c0-1.15,0.93-2.07,2.07-2.07S328.17,278.8,328.17,279.95z"/>
			
				<linearGradient id="SVGID_00000145767760907649950950000004626981436644210326_" gradientUnits="userSpaceOnUse" x1="292.2062" y1="267.1159" x2="504.0362" y2="366.7013">
				<stop  offset="3.806249e-03" style="stop-color:#000428"/>
				<stop  offset="0.9996" style="stop-color:#004E80"/>
			</linearGradient>
			<path style="fill:url(#SVGID_00000145767760907649950950000004626981436644210326_);" d="M352.33,282.81v4.1h-14.38
				c-0.49,0-0.86,0.16-1.11,0.46c-0.25,0.31-0.37,0.61-0.37,0.91v6.85c0,0.3,0.12,0.6,0.37,0.91s0.61,0.46,1.11,0.46h14.38v4.1
				h-14.38c-0.88,0-1.64-0.17-2.31-0.51c-0.66-0.34-1.22-0.78-1.66-1.31c-0.45-0.53-0.79-1.13-1.02-1.78
				c-0.23-0.65-0.35-1.28-0.35-1.87v-6.85c0-0.6,0.12-1.22,0.35-1.87c0.24-0.65,0.58-1.24,1.02-1.78c0.45-0.53,1-0.97,1.66-1.31
				c0.66-0.34,1.43-0.51,2.31-0.51H352.33z"/>
			
				<linearGradient id="SVGID_00000128452779864253254180000008183618759123118009_" gradientUnits="userSpaceOnUse" x1="295.8262" y1="259.4157" x2="507.6562" y2="359.0011">
				<stop  offset="3.806249e-03" style="stop-color:#000428"/>
				<stop  offset="0.9996" style="stop-color:#004E80"/>
			</linearGradient>
			<path style="fill:url(#SVGID_00000128452779864253254180000008183618759123118009_);" d="M356.62,278.24h3.87v10.98l6.34-6.4h5.6
				l-7.68,7.78l8.93,10.02h-5.32l-6.4-7.2l-1.47,1.44v5.76h-3.87V278.24z"/>
		</g>
		<g>
			
				<linearGradient id="SVGID_00000029756810440479753560000016599922303305333136_" gradientUnits="userSpaceOnUse" x1="330.7398" y1="185.1503" x2="542.5698" y2="284.7357">
				<stop  offset="3.806249e-03" style="stop-color:#000428"/>
				<stop  offset="0.9996" style="stop-color:#004E80"/>
			</linearGradient>
			<path style="fill:url(#SVGID_00000029756810440479753560000016599922303305333136_);" d="M558.76,266.28h-20.21
				c1.06,1.16,2.04,2.4,2.94,3.7h17.27c3.94,0,7.13,3.21,7.13,7.14v24.13c0,3.94-3.2,7.13-7.13,7.13h-13.89
				c-0.59,1.28-1.26,2.5-1.98,3.7h15.87c5.97,0,10.83-4.86,10.83-10.83v-24.13C569.59,271.14,564.73,266.28,558.76,266.28z"/>
		</g>
		<g>
			
				<linearGradient id="SVGID_00000176044637129237180140000001688369993496812718_" gradientUnits="userSpaceOnUse" x1="290.9038" y1="269.8863" x2="502.7337" y2="369.4717">
				<stop  offset="3.806249e-03" style="stop-color:#000428"/>
				<stop  offset="0.9996" style="stop-color:#004E80"/>
			</linearGradient>
			<path style="fill:url(#SVGID_00000176044637129237180140000001688369993496812718_);" d="M272.22,277.12v24.13
				c0,5.97,4.86,10.83,10.83,10.83h95.87c-0.72-1.19-1.39-2.42-1.98-3.7h-93.9c-3.94,0-7.13-3.2-7.13-7.13v-24.13
				c0-3.94,3.2-7.14,7.13-7.14h97.28c0.9-1.29,1.88-2.53,2.94-3.7H283.05C277.08,266.28,272.22,271.14,272.22,277.12z"/>
		</g>
		<g>
			
				<linearGradient id="SVGID_00000116233946593933672820000009764827117907982224_" gradientUnits="userSpaceOnUse" x1="288.1153" y1="275.8177" x2="499.9453" y2="375.4031">
				<stop  offset="3.806249e-03" style="stop-color:#000428"/>
				<stop  offset="0.9996" style="stop-color:#004E80"/>
			</linearGradient>
			<path style="fill:url(#SVGID_00000116233946593933672820000009764827117907982224_);" d="M390.13,329.12
				c0.07,0,0.13-0.02,0.19-0.06s0.08-0.1,0.08-0.18v-6.1c0-0.08-0.03-0.14-0.08-0.17c-0.05-0.03-0.12-0.05-0.19-0.05v-0.24h2.5v0.24
				c-0.04,0-0.09,0.01-0.14,0.04c-0.05,0.03-0.07,0.07-0.07,0.12c0,0.04,0.02,0.1,0.05,0.17c0.04,0.07,0.08,0.15,0.12,0.23
				l1.91,3.48l1.93-3.44c0.06-0.12,0.11-0.21,0.14-0.28c0.03-0.07,0.05-0.13,0.05-0.18c0-0.1-0.06-0.15-0.17-0.15v-0.24h2.47v0.24
				c-0.07,0-0.13,0.01-0.19,0.05c-0.05,0.03-0.08,0.09-0.08,0.17v6.1c0,0.08,0.03,0.14,0.08,0.18c0.05,0.04,0.12,0.06,0.19,0.06
				v0.24h-2.1v-0.24c0.24,0,0.36-0.08,0.36-0.24v-4.44h-0.03l-2.69,4.92h-0.04l-2.63-4.94h-0.03v4.45c0,0.16,0.13,0.24,0.37,0.24
				v0.24h-2.01V329.12z"/>
			
				<linearGradient id="SVGID_00000037660489011418757470000017580223390543038093_" gradientUnits="userSpaceOnUse" x1="289.9654" y1="271.8825" x2="501.7953" y2="371.4679">
				<stop  offset="3.806249e-03" style="stop-color:#000428"/>
				<stop  offset="0.9996" style="stop-color:#004E80"/>
			</linearGradient>
			<path style="fill:url(#SVGID_00000037660489011418757470000017580223390543038093_);" d="M407.59,323.77
				c0-0.1-0.04-0.17-0.11-0.22c-0.08-0.05-0.21-0.07-0.4-0.07h-4.33v1.66h2.62c0.18,0,0.32-0.02,0.42-0.07
				c0.1-0.05,0.15-0.18,0.15-0.38h0.24v2.09h-0.24c0-0.21-0.05-0.34-0.15-0.4c-0.1-0.06-0.24-0.09-0.42-0.09h-2.62v1.85h4.47
				c0.13,0,0.24-0.03,0.33-0.09c0.08-0.06,0.13-0.15,0.13-0.25h0.24v1.83h-0.24c0-0.13-0.04-0.21-0.13-0.23
				c-0.09-0.02-0.19-0.03-0.33-0.03h-6.23v-0.24c0.06,0,0.12-0.02,0.17-0.06c0.05-0.04,0.07-0.1,0.07-0.18v-6.07
				c0-0.08-0.02-0.14-0.07-0.18c-0.05-0.04-0.1-0.06-0.17-0.06v-0.24h6.1c0.19,0,0.32-0.03,0.4-0.09c0.08-0.06,0.11-0.14,0.11-0.23
				h0.24v1.77H407.59z"/>
			
				<linearGradient id="SVGID_00000119093631988911089450000017119452334878795669_" gradientUnits="userSpaceOnUse" x1="291.6505" y1="268.2979" x2="503.4805" y2="367.8833">
				<stop  offset="3.806249e-03" style="stop-color:#000428"/>
				<stop  offset="0.9996" style="stop-color:#004E80"/>
			</linearGradient>
			<path style="fill:url(#SVGID_00000119093631988911089450000017119452334878795669_);" d="M409.67,329.12
				c0.07,0,0.13-0.02,0.19-0.06s0.08-0.1,0.08-0.18v-6.1c0-0.08-0.03-0.14-0.08-0.17c-0.05-0.03-0.12-0.05-0.19-0.05v-0.24h2.5v0.24
				c-0.04,0-0.09,0.01-0.14,0.04c-0.05,0.03-0.07,0.07-0.07,0.12c0,0.04,0.02,0.1,0.05,0.17c0.04,0.07,0.08,0.15,0.12,0.23
				l1.91,3.48l1.93-3.44c0.06-0.12,0.11-0.21,0.14-0.28c0.03-0.07,0.05-0.13,0.05-0.18c0-0.1-0.06-0.15-0.17-0.15v-0.24h2.47v0.24
				c-0.07,0-0.13,0.01-0.19,0.05c-0.05,0.03-0.08,0.09-0.08,0.17v6.1c0,0.08,0.03,0.14,0.08,0.18c0.05,0.04,0.12,0.06,0.19,0.06
				v0.24h-2.1v-0.24c0.24,0,0.36-0.08,0.36-0.24v-4.44h-0.03l-2.69,4.92h-0.04l-2.63-4.94h-0.03v4.45c0,0.16,0.13,0.24,0.37,0.24
				v0.24h-2.01V329.12z"/>
			
				<linearGradient id="SVGID_00000173145451088131479110000007708533453434856380_" gradientUnits="userSpaceOnUse" x1="293.5535" y1="264.2502" x2="505.3834" y2="363.8355">
				<stop  offset="3.806249e-03" style="stop-color:#000428"/>
				<stop  offset="0.9996" style="stop-color:#004E80"/>
			</linearGradient>
			<path style="fill:url(#SVGID_00000173145451088131479110000007708533453434856380_);" d="M424.57,322.25
				c0.49,0,0.99,0.07,1.5,0.22c0.51,0.15,0.97,0.37,1.39,0.66c0.42,0.29,0.76,0.67,1.03,1.12c0.27,0.45,0.4,0.98,0.4,1.6
				c0,0.61-0.13,1.15-0.4,1.6c-0.27,0.45-0.61,0.82-1.03,1.12c-0.42,0.29-0.88,0.51-1.39,0.64c-0.51,0.13-1.01,0.2-1.5,0.2
				c-0.49,0-0.99-0.07-1.5-0.2c-0.51-0.13-0.97-0.35-1.39-0.64c-0.42-0.29-0.76-0.67-1.03-1.12c-0.27-0.45-0.4-0.98-0.4-1.6
				c0-0.62,0.13-1.15,0.4-1.6c0.27-0.45,0.61-0.82,1.03-1.12c0.42-0.29,0.88-0.51,1.39-0.66
				C423.58,322.32,424.08,322.25,424.57,322.25z M424.57,323.48c-0.34,0-0.68,0.05-1.02,0.16c-0.34,0.11-0.64,0.26-0.92,0.46
				c-0.27,0.2-0.49,0.45-0.66,0.74c-0.17,0.29-0.25,0.63-0.25,1c0,0.37,0.08,0.71,0.25,1c0.17,0.29,0.39,0.54,0.66,0.74
				c0.27,0.2,0.58,0.35,0.92,0.46c0.34,0.11,0.68,0.16,1.02,0.16c0.34,0,0.68-0.05,1.02-0.16c0.34-0.11,0.64-0.26,0.92-0.46
				c0.27-0.2,0.49-0.45,0.66-0.74c0.17-0.29,0.25-0.63,0.25-1c0-0.38-0.09-0.71-0.25-1c-0.17-0.29-0.39-0.54-0.66-0.74
				c-0.27-0.2-0.58-0.35-0.92-0.46C425.25,323.53,424.91,323.48,424.57,323.48z"/>
			
				<linearGradient id="SVGID_00000128459701784408999540000004273733607982894976_" gradientUnits="userSpaceOnUse" x1="295.1537" y1="260.8463" x2="506.9836" y2="360.4316">
				<stop  offset="3.806249e-03" style="stop-color:#000428"/>
				<stop  offset="0.9996" style="stop-color:#004E80"/>
			</linearGradient>
			<path style="fill:url(#SVGID_00000128459701784408999540000004273733607982894976_);" d="M435.15,322.33
				c0.43,0,0.82,0.04,1.16,0.11s0.65,0.2,0.9,0.36c0.25,0.16,0.44,0.38,0.58,0.64c0.13,0.26,0.2,0.59,0.2,0.97
				c0,0.59-0.17,1.04-0.52,1.35c-0.35,0.31-0.82,0.52-1.4,0.63l1.78,2.54c0.06,0.09,0.14,0.14,0.22,0.16
				c0.08,0.02,0.16,0.03,0.23,0.03v0.24h-2.5v-0.24c0.08,0,0.15-0.01,0.21-0.04c0.06-0.03,0.09-0.06,0.09-0.11
				c0-0.04-0.02-0.1-0.05-0.15c-0.04-0.06-0.09-0.14-0.16-0.23l-1.47-2.09h-1.91v2.38c0,0.08,0.03,0.14,0.09,0.18
				c0.06,0.04,0.16,0.06,0.31,0.06v0.24h-2.31v-0.24c0.26,0,0.39-0.08,0.39-0.24v-6.07c0-0.16-0.13-0.24-0.39-0.24v-0.24H435.15z
				 M434.8,325.46c0.32,0,0.59-0.02,0.8-0.07c0.21-0.05,0.38-0.12,0.51-0.21s0.21-0.19,0.27-0.31s0.08-0.25,0.08-0.39
				c0-0.14-0.03-0.28-0.08-0.4s-0.14-0.22-0.27-0.31s-0.29-0.16-0.51-0.21c-0.21-0.05-0.48-0.07-0.8-0.07h-2.31v1.98H434.8z"/>
			
				<linearGradient id="SVGID_00000065057187187447927370000004173049119006902663_" gradientUnits="userSpaceOnUse" x1="296.5481" y1="257.8802" x2="508.3781" y2="357.4656">
				<stop  offset="3.806249e-03" style="stop-color:#000428"/>
				<stop  offset="0.9996" style="stop-color:#004E80"/>
			</linearGradient>
			<path style="fill:url(#SVGID_00000065057187187447927370000004173049119006902663_);" d="M440.01,329.12
				c0.23,0,0.35-0.08,0.35-0.24v-6.07c0-0.16-0.12-0.24-0.35-0.24v-0.24h2.22v0.24c-0.23,0-0.35,0.08-0.35,0.24v6.07
				c0,0.16,0.12,0.24,0.35,0.24v0.24h-2.22V329.12z"/>
			
				<linearGradient id="SVGID_00000088099430427139643470000001497180405544745871_" gradientUnits="userSpaceOnUse" x1="297.794" y1="255.2301" x2="509.6239" y2="354.8155">
				<stop  offset="3.806249e-03" style="stop-color:#000428"/>
				<stop  offset="0.9996" style="stop-color:#004E80"/>
			</linearGradient>
			<path style="fill:url(#SVGID_00000088099430427139643470000001497180405544745871_);" d="M450.84,323.77
				c0-0.1-0.04-0.17-0.11-0.22c-0.08-0.05-0.21-0.07-0.4-0.07H446v1.66h2.62c0.18,0,0.32-0.02,0.42-0.07
				c0.1-0.05,0.15-0.18,0.15-0.38h0.24v2.09h-0.24c0-0.21-0.05-0.34-0.15-0.4c-0.1-0.06-0.24-0.09-0.42-0.09H446v1.85h4.47
				c0.13,0,0.24-0.03,0.33-0.09c0.08-0.06,0.13-0.15,0.13-0.25h0.24v1.83h-0.24c0-0.13-0.04-0.21-0.13-0.23
				c-0.09-0.02-0.19-0.03-0.33-0.03h-6.23v-0.24c0.06,0,0.12-0.02,0.17-0.06c0.05-0.04,0.07-0.1,0.07-0.18v-6.07
				c0-0.08-0.02-0.14-0.07-0.18c-0.05-0.04-0.1-0.06-0.17-0.06v-0.24h6.1c0.19,0,0.32-0.03,0.4-0.09c0.08-0.06,0.11-0.14,0.11-0.23
				h0.24v1.77H450.84z"/>
			
				<linearGradient id="SVGID_00000155134967663536135980000008287924792546099901_" gradientUnits="userSpaceOnUse" x1="299.2681" y1="252.0944" x2="511.0981" y2="351.6798">
				<stop  offset="3.806249e-03" style="stop-color:#000428"/>
				<stop  offset="0.9996" style="stop-color:#004E80"/>
			</linearGradient>
			<path style="fill:url(#SVGID_00000155134967663536135980000008287924792546099901_);" d="M453.41,327.16l0.13,0.07
				c0,0.08,0.02,0.15,0.05,0.21c0.06,0.11,0.18,0.21,0.37,0.31c0.18,0.1,0.39,0.19,0.63,0.27c0.24,0.08,0.48,0.15,0.74,0.19
				c0.26,0.05,0.49,0.07,0.7,0.07c0.15,0,0.35-0.01,0.59-0.03c0.24-0.02,0.48-0.07,0.71-0.14c0.23-0.07,0.43-0.17,0.6-0.29
				c0.17-0.12,0.26-0.29,0.26-0.49c0-0.2-0.08-0.36-0.23-0.45c-0.16-0.1-0.36-0.17-0.62-0.21s-0.54-0.07-0.87-0.09
				c-0.33-0.01-0.66-0.03-1-0.06c-0.34-0.03-0.67-0.07-1-0.13c-0.33-0.06-0.62-0.17-0.87-0.31s-0.46-0.35-0.62-0.6
				c-0.16-0.25-0.23-0.59-0.23-1c0-0.28,0.07-0.55,0.19-0.82s0.33-0.5,0.59-0.71c0.27-0.2,0.61-0.37,1.02-0.5
				c0.41-0.13,0.89-0.19,1.44-0.19c0.47,0,0.88,0.04,1.23,0.11c0.35,0.07,0.65,0.15,0.9,0.23c0.25,0.08,0.47,0.16,0.64,0.23
				c0.17,0.07,0.32,0.11,0.43,0.11c0.12,0,0.21-0.03,0.27-0.08l0.16,0.11l-0.92,1.67l-0.13-0.05c-0.02-0.12-0.05-0.23-0.11-0.31
				c-0.07-0.11-0.19-0.21-0.35-0.31c-0.16-0.1-0.36-0.19-0.58-0.27s-0.46-0.14-0.72-0.19c-0.26-0.05-0.52-0.07-0.78-0.07
				c-0.2,0-0.4,0.02-0.61,0.05c-0.21,0.03-0.4,0.08-0.57,0.14c-0.17,0.06-0.31,0.14-0.42,0.25c-0.11,0.1-0.17,0.23-0.17,0.38
				c0,0.21,0.08,0.37,0.23,0.48c0.16,0.11,0.36,0.19,0.62,0.24c0.25,0.05,0.54,0.09,0.87,0.11c0.33,0.02,0.66,0.04,1,0.07
				c0.34,0.03,0.67,0.07,1,0.14c0.33,0.07,0.62,0.17,0.87,0.32c0.25,0.15,0.46,0.35,0.61,0.6c0.16,0.25,0.23,0.57,0.23,0.98
				c0,0.46-0.12,0.84-0.37,1.14c-0.25,0.29-0.55,0.53-0.92,0.7c-0.37,0.17-0.76,0.28-1.18,0.34c-0.42,0.06-0.82,0.09-1.18,0.09
				c-0.51,0-0.93-0.03-1.28-0.09c-0.34-0.06-0.63-0.13-0.86-0.21c-0.23-0.08-0.41-0.16-0.54-0.23c-0.13-0.07-0.25-0.1-0.35-0.1
				c-0.06,0-0.12,0.04-0.17,0.11l-0.19-0.11L453.41,327.16z"/>
			
				<linearGradient id="SVGID_00000153707499395586385670000013634989583918869391_" gradientUnits="userSpaceOnUse" x1="301.1295" y1="248.1351" x2="512.9594" y2="347.7205">
				<stop  offset="3.806249e-03" style="stop-color:#000428"/>
				<stop  offset="0.9996" style="stop-color:#004E80"/>
			</linearGradient>
			<path style="fill:url(#SVGID_00000153707499395586385670000013634989583918869391_);" d="M465.32,329.12
				c0.23,0,0.35-0.08,0.35-0.24v-6.07c0-0.16-0.12-0.24-0.35-0.24v-0.24h2.22v0.24c-0.23,0-0.35,0.08-0.35,0.24v6.07
				c0,0.16,0.12,0.24,0.35,0.24v0.24h-2.22V329.12z"/>
			
				<linearGradient id="SVGID_00000174578415771689679630000010373560640170177965_" gradientUnits="userSpaceOnUse" x1="302.4262" y1="245.3768" x2="514.2561" y2="344.9622">
				<stop  offset="3.806249e-03" style="stop-color:#000428"/>
				<stop  offset="0.9996" style="stop-color:#004E80"/>
			</linearGradient>
			<path style="fill:url(#SVGID_00000174578415771689679630000010373560640170177965_);" d="M469.61,329.12
				c0.17,0,0.26-0.08,0.26-0.24v-6.07c0-0.16-0.09-0.24-0.26-0.24v-0.24h2.29v0.24c-0.07,0-0.11,0.04-0.11,0.13
				c0,0.07,0.09,0.2,0.27,0.37l3.84,3.99v-4.25c0-0.16-0.12-0.24-0.35-0.24v-0.24h2.02v0.24c-0.17,0-0.25,0.08-0.25,0.24v6.07
				c0,0.16,0.08,0.24,0.25,0.24v0.24h-2.17v-0.24c0.12,0,0.17-0.04,0.17-0.12c0-0.06-0.07-0.17-0.21-0.31l-4.08-4.25v4.44
				c0,0.16,0.1,0.24,0.31,0.24v0.24h-1.98V329.12z"/>
			
				<linearGradient id="SVGID_00000181087006556620990620000018013134388302541239_" gradientUnits="userSpaceOnUse" x1="305.0195" y1="239.8606" x2="516.8494" y2="339.446">
				<stop  offset="3.806249e-03" style="stop-color:#000428"/>
				<stop  offset="0.9996" style="stop-color:#004E80"/>
			</linearGradient>
			<path style="fill:url(#SVGID_00000181087006556620990620000018013134388302541239_);" d="M483.52,329.12
				c0.07,0,0.13-0.02,0.19-0.06s0.08-0.1,0.08-0.18v-6.1c0-0.08-0.03-0.14-0.08-0.17c-0.05-0.03-0.12-0.05-0.19-0.05v-0.24h2.5v0.24
				c-0.04,0-0.09,0.01-0.14,0.04c-0.05,0.03-0.07,0.07-0.07,0.12c0,0.04,0.02,0.1,0.05,0.17c0.04,0.07,0.08,0.15,0.12,0.23
				l1.91,3.48l1.93-3.44c0.06-0.12,0.11-0.21,0.14-0.28c0.03-0.07,0.05-0.13,0.05-0.18c0-0.1-0.06-0.15-0.17-0.15v-0.24h2.47v0.24
				c-0.07,0-0.13,0.01-0.19,0.05c-0.05,0.03-0.08,0.09-0.08,0.17v6.1c0,0.08,0.03,0.14,0.08,0.18c0.05,0.04,0.12,0.06,0.19,0.06
				v0.24h-2.1v-0.24c0.24,0,0.36-0.08,0.36-0.24v-4.44h-0.03l-2.69,4.92h-0.04l-2.63-4.94h-0.03v4.45c0,0.16,0.13,0.24,0.37,0.24
				v0.24h-2.01V329.12z"/>
			
				<linearGradient id="SVGID_00000011744478022270870040000002295967239963812237_" gradientUnits="userSpaceOnUse" x1="306.9224" y1="235.8129" x2="518.7523" y2="335.3983">
				<stop  offset="3.806249e-03" style="stop-color:#000428"/>
				<stop  offset="0.9996" style="stop-color:#004E80"/>
			</linearGradient>
			<path style="fill:url(#SVGID_00000011744478022270870040000002295967239963812237_);" d="M498.43,322.25
				c0.49,0,0.99,0.07,1.5,0.22c0.51,0.15,0.97,0.37,1.39,0.66c0.42,0.29,0.76,0.67,1.03,1.12c0.27,0.45,0.4,0.98,0.4,1.6
				c0,0.61-0.13,1.15-0.4,1.6c-0.27,0.45-0.61,0.82-1.03,1.12c-0.42,0.29-0.88,0.51-1.39,0.64c-0.51,0.13-1.01,0.2-1.5,0.2
				c-0.49,0-0.99-0.07-1.5-0.2c-0.51-0.13-0.97-0.35-1.39-0.64c-0.42-0.29-0.76-0.67-1.03-1.12c-0.27-0.45-0.4-0.98-0.4-1.6
				c0-0.62,0.13-1.15,0.4-1.6c0.27-0.45,0.61-0.82,1.03-1.12c0.42-0.29,0.88-0.51,1.39-0.66
				C497.44,322.32,497.94,322.25,498.43,322.25z M498.43,323.48c-0.34,0-0.68,0.05-1.02,0.16c-0.34,0.11-0.64,0.26-0.92,0.46
				c-0.27,0.2-0.49,0.45-0.66,0.74c-0.17,0.29-0.25,0.63-0.25,1c0,0.37,0.08,0.71,0.25,1c0.17,0.29,0.39,0.54,0.66,0.74
				c0.27,0.2,0.58,0.35,0.92,0.46c0.34,0.11,0.68,0.16,1.02,0.16c0.34,0,0.68-0.05,1.02-0.16c0.34-0.11,0.64-0.26,0.92-0.46
				c0.27-0.2,0.49-0.45,0.66-0.74c0.17-0.29,0.25-0.63,0.25-1c0-0.38-0.09-0.71-0.25-1c-0.17-0.29-0.39-0.54-0.66-0.74
				c-0.27-0.2-0.58-0.35-0.92-0.46C499.1,323.53,498.77,323.48,498.43,323.48z"/>
			
				<linearGradient id="SVGID_00000048484778857116733270000010260634783576236195_" gradientUnits="userSpaceOnUse" x1="308.8466" y1="231.7198" x2="520.6766" y2="331.3052">
				<stop  offset="3.806249e-03" style="stop-color:#000428"/>
				<stop  offset="0.9996" style="stop-color:#004E80"/>
			</linearGradient>
			<path style="fill:url(#SVGID_00000048484778857116733270000010260634783576236195_);" d="M508.21,328.88
				c0,0.16,0.1,0.24,0.29,0.24v0.24h-2.06v-0.24c0.06,0,0.12-0.02,0.17-0.06c0.05-0.04,0.07-0.1,0.07-0.18v-5.32h-2.21
				c-0.08,0-0.16,0.02-0.23,0.07c-0.08,0.04-0.11,0.13-0.11,0.25h-0.24v-1.87h0.24c0,0.13,0.04,0.21,0.11,0.26
				c0.08,0.04,0.15,0.07,0.23,0.07h5.94c0.08,0,0.16-0.02,0.23-0.07c0.08-0.04,0.11-0.13,0.11-0.26H511v1.87h-0.24
				c0-0.13-0.04-0.21-0.11-0.25c-0.08-0.04-0.15-0.07-0.23-0.07h-2.21V328.88z"/>
			
				<linearGradient id="SVGID_00000183243634414579818950000008867803524935817364_" gradientUnits="userSpaceOnUse" x1="309.6483" y1="230.0146" x2="521.4782" y2="329.5999">
				<stop  offset="3.806249e-03" style="stop-color:#000428"/>
				<stop  offset="0.9996" style="stop-color:#004E80"/>
			</linearGradient>
			<path style="fill:url(#SVGID_00000183243634414579818950000008867803524935817364_);" d="M512.38,329.12
				c0.23,0,0.35-0.08,0.35-0.24v-6.07c0-0.16-0.12-0.24-0.35-0.24v-0.24h2.22v0.24c-0.23,0-0.35,0.08-0.35,0.24v6.07
				c0,0.16,0.12,0.24,0.35,0.24v0.24h-2.22V329.12z"/>
			
				<linearGradient id="SVGID_00000115501788459648682090000012877081288399847078_" gradientUnits="userSpaceOnUse" x1="310.9468" y1="227.2524" x2="522.7767" y2="326.8378">
				<stop  offset="3.806249e-03" style="stop-color:#000428"/>
				<stop  offset="0.9996" style="stop-color:#004E80"/>
			</linearGradient>
			<path style="fill:url(#SVGID_00000115501788459648682090000012877081288399847078_);" d="M520.66,322.25
				c0.49,0,0.99,0.07,1.5,0.22c0.51,0.15,0.97,0.37,1.39,0.66c0.42,0.29,0.76,0.67,1.03,1.12c0.27,0.45,0.4,0.98,0.4,1.6
				c0,0.61-0.13,1.15-0.4,1.6c-0.27,0.45-0.61,0.82-1.03,1.12c-0.42,0.29-0.88,0.51-1.39,0.64c-0.51,0.13-1.01,0.2-1.5,0.2
				c-0.49,0-0.99-0.07-1.5-0.2c-0.51-0.13-0.97-0.35-1.39-0.64c-0.42-0.29-0.76-0.67-1.03-1.12c-0.27-0.45-0.4-0.98-0.4-1.6
				c0-0.62,0.13-1.15,0.4-1.6c0.27-0.45,0.61-0.82,1.03-1.12c0.42-0.29,0.88-0.51,1.39-0.66
				C519.67,322.32,520.17,322.25,520.66,322.25z M520.66,323.48c-0.34,0-0.68,0.05-1.02,0.16c-0.34,0.11-0.64,0.26-0.92,0.46
				c-0.27,0.2-0.49,0.45-0.66,0.74c-0.17,0.29-0.25,0.63-0.25,1c0,0.37,0.08,0.71,0.25,1c0.17,0.29,0.39,0.54,0.66,0.74
				c0.27,0.2,0.58,0.35,0.92,0.46c0.34,0.11,0.68,0.16,1.02,0.16c0.34,0,0.68-0.05,1.02-0.16c0.34-0.11,0.64-0.26,0.92-0.46
				c0.27-0.2,0.49-0.45,0.66-0.74c0.17-0.29,0.25-0.63,0.25-1c0-0.38-0.09-0.71-0.25-1c-0.17-0.29-0.39-0.54-0.66-0.74
				c-0.27-0.2-0.58-0.35-0.92-0.46C521.34,323.53,521,323.48,520.66,323.48z"/>
			
				<linearGradient id="SVGID_00000176020219784655056970000007615415808390415531_" gradientUnits="userSpaceOnUse" x1="312.7805" y1="223.3521" x2="524.6104" y2="322.9375">
				<stop  offset="3.806249e-03" style="stop-color:#000428"/>
				<stop  offset="0.9996" style="stop-color:#004E80"/>
			</linearGradient>
			<path style="fill:url(#SVGID_00000176020219784655056970000007615415808390415531_);" d="M526.82,329.12
				c0.17,0,0.26-0.08,0.26-0.24v-6.07c0-0.16-0.09-0.24-0.26-0.24v-0.24h2.29v0.24c-0.07,0-0.11,0.04-0.11,0.13
				c0,0.07,0.09,0.2,0.27,0.37l3.84,3.99v-4.25c0-0.16-0.12-0.24-0.35-0.24v-0.24h2.02v0.24c-0.17,0-0.25,0.08-0.25,0.24v6.07
				c0,0.16,0.08,0.24,0.25,0.24v0.24h-2.17v-0.24c0.12,0,0.17-0.04,0.17-0.12c0-0.06-0.07-0.17-0.21-0.31l-4.08-4.25v4.44
				c0,0.16,0.1,0.24,0.31,0.24v0.24h-1.98V329.12z"/>
		</g>
	</g>
</g>
</svg>
